<svg width="300" height="300" viewBox="0 0 300 300" fill="none" xmlns="http://www.w3.org/2000/svg">
<circle cx="150" cy="150" r="150" fill="url(#paint0_linear_3_8)"/>
<path d="M157.757 244.067C157.04 245.679 155.965 247.113 154.532 248.367C153.098 249.621 151.486 250.248 149.694 250.248C147.903 250.248 146.29 249.621 144.857 248.367C143.424 246.934 142.438 245.5 141.901 244.067L77.6719 87.9286C76.776 85.7787 76.776 83.7184 77.6719 81.7476C78.5677 79.5977 80.0905 78.0748 82.2404 77.179C84.3904 76.2832 86.4507 76.3728 88.4215 77.4478C90.5714 78.3436 92.0943 79.7768 92.9901 81.7476L149.694 219.074L206.13 81.7476C207.026 79.7768 208.459 78.3436 210.43 77.4478C212.58 76.3728 214.73 76.2832 216.88 77.179C219.029 78.0748 220.552 79.5977 221.448 81.7476C222.344 83.7184 222.344 85.7787 221.448 87.9286L157.757 244.067Z" fill="#F8F8FA"/>
<path d="M139.362 93.2276C137.199 93.1434 135.33 92.3583 133.755 90.8725C131.947 89.2886 131.052 87.3321 131.068 85.0031C131.085 82.674 131.919 80.6885 133.57 79.0463C135.056 77.4719 136.964 76.693 139.293 76.7095L213.772 76.5739L213.597 93.3916L139.362 93.2276Z" fill="#F8F8FA"/>
<defs>
<linearGradient id="paint0_linear_3_8" x1="2.34728e-06" y1="97.4952" x2="300" y2="202.505" gradientUnits="userSpaceOnUse">
<stop offset="1" stop-color="#9543EA"/>
<stop offset="0.000100017" stop-color="#EB4C9B"/>
<stop stop-color="#EB4C9B"/>
</linearGradient>
</defs>
</svg>
